# xmcd
# 
# Track frame offsets:
#     150
#     3368
#     21803
#     42718
# 
# Disc length: 856
# 
# Revision: 0
# Processed by: cddbd v1.5.2PL0 Copyright (c) Steve Scherf et al.
# Submitted via: fre:ac v1.0.17
# 
DISCID=29035604
DTITLE=Born to Hula - Sunset Radio EP
DYEAR=2006
DGENRE=Stoner Rock
TTITLE0=To a place nobody knows
TTITLE1=Marrakech Tripin
TTITLE2=Follow Me
TTITLE3=Silly Walk
EXTD=08/2006
EXTT0=
EXTT1=
EXTT2=
EXTT3=
PLAYORDER=
